<svg xmlns="http://www.w3.org/2000/svg" xmlns:svg="http://www.w3.org/2000/svg" id="svg2" width="150" height="150" version="1.1"><metadata id="metadata8"/><path style="fill:#000;stroke:#000;stroke-width:.44943228;stroke-miterlimit:4;stroke-opacity:1;stroke-dasharray:none" id="path3868"/><path style="fill:#000;stroke:#000;stroke-width:.44943228;stroke-miterlimit:4;stroke-opacity:1;stroke-dasharray:none" id="path3870"/><path style="fill:#000;stroke:#000;stroke-width:.44943228;stroke-miterlimit:4;stroke-opacity:1;stroke-dasharray:none" id="path3874"/><path style="fill:#000;stroke:#000;stroke-width:.44943228;stroke-miterlimit:4;stroke-opacity:1;stroke-dasharray:none" id="path3876"/><path style="fill:#000;fill-opacity:1;stroke:#000;stroke-width:1;stroke-miterlimit:4;stroke-opacity:1;stroke-dasharray:none" id="path3887-2-7" d="m 157.23819,125.73066 a 68.250603,45.8923 0 1 1 -136.501206,0 68.250603,45.8923 0 1 1 136.501206,0 z" transform="matrix(0.5492562,-0.01331395,0,0.82814436,33.004351,-17.98696)"/><path style="fill:#fff;stroke:#000;stroke-width:1;stroke-miterlimit:4;stroke-opacity:1;stroke-dasharray:none" id="path3887-2" d="m 157.23819,125.73066 a 68.250603,45.8923 0 1 1 -136.501206,0 68.250603,45.8923 0 1 1 136.501206,0 z" transform="matrix(0.48506193,-0.0118215,0,0.73531231,38.116426,-6.0572328)"/><path style="fill:#000;stroke:#000;stroke-width:1.13048398px;stroke-linecap:butt;stroke-linejoin:miter;stroke-opacity:1" id="path3826-0" d="M 14.993664,134.59169 77.115821,2.4401361 78.886417,6.1781501 16.469168,137.70675 z"/><path style="fill:#000;stroke:#000;stroke-width:1.06360006px;stroke-linecap:butt;stroke-linejoin:miter;stroke-opacity:1" id="path3826-0-8" d="M 18.061337,134.64043 142.91608,110.17606 141.00551,113.8556 16.469168,137.70675 z"/><path style="fill:#000;stroke:#000;stroke-width:.99851412px;stroke-linecap:butt;stroke-linejoin:miter;stroke-opacity:1" id="path3826-0-8-4" d="M 80.314444,2.9974762 142.91608,110.17606 139.13197,109.50727 77.160986,2.4401361 z"/></svg>