<svg xmlns="http://www.w3.org/2000/svg" xmlns:svg="http://www.w3.org/2000/svg" id="svg2" width="150" height="150" version="1.1"><metadata id="metadata8"/><path style="fill:#000;stroke:#000;stroke-width:.44943228;stroke-miterlimit:4;stroke-opacity:1;stroke-dasharray:none" id="path3868"/><path style="fill:#000;stroke:#000;stroke-width:.44943228;stroke-miterlimit:4;stroke-opacity:1;stroke-dasharray:none" id="path3870"/><path style="fill:#000;stroke:#000;stroke-width:.44943228;stroke-miterlimit:4;stroke-opacity:1;stroke-dasharray:none" id="path3874"/><path style="fill:#000;stroke:#000;stroke-width:.44943228;stroke-miterlimit:4;stroke-opacity:1;stroke-dasharray:none" id="path3876"/><path style="fill:#000;fill-opacity:1;stroke:#000;stroke-width:1;stroke-miterlimit:4;stroke-opacity:1;stroke-dasharray:none" id="path3887-2-7" d="m 157.23819,125.73066 a 68.250603,45.8923 0 1 1 -136.501206,0 68.250603,45.8923 0 1 1 136.501206,0 z" transform="matrix(0.99196706,-0.01626238,0,1.0115402,-12.777314,-40.122336)"/><path style="fill:#fff;stroke:#000;stroke-width:1;stroke-miterlimit:4;stroke-opacity:1;stroke-dasharray:none" id="path3887-2" d="m 157.23819,125.73066 a 68.250603,45.8923 0 1 1 -136.501206,0 68.250603,45.8923 0 1 1 136.501206,0 z" transform="matrix(0.94205088,-0.0151452,0,0.94205088,-7.9892698,-31.500957)"/><path style="fill:#000;stroke:#000;stroke-width:.70223391px;stroke-linecap:butt;stroke-linejoin:miter;stroke-opacity:1" id="path3826" d="m 55.198887,80.732065 49.551003,-45.53107 1.98204,1.809183 -49.881344,45.229537 z"/><path style="fill:#000;stroke:#000;stroke-width:1;stroke-miterlimit:4;stroke-opacity:1;stroke-dasharray:none" id="path3910-53" d="m 37.752312,105.05677 a 7.8650646,7.6403489 0 1 1 -15.73013,0 7.8650646,7.6403489 0 1 1 15.73013,0 z" transform="matrix(1.44671,0,0,1.3628675,64.917631,-57.312598)"/><path style="fill:#000;stroke:#000;stroke-width:1;stroke-miterlimit:4;stroke-opacity:1;stroke-dasharray:none" id="path3910-53-4" d="m 37.752312,105.05677 a 7.8650646,7.6403489 0 1 1 -15.73013,0 7.8650646,7.6403489 0 1 1 15.73013,0 z" transform="matrix(1.5037757,0,0,1.3628675,1.6536291,-55.492165)"/><path style="fill:#000;stroke:#000;stroke-width:.58567727px;stroke-linecap:butt;stroke-linejoin:miter;stroke-opacity:1" id="path3826-0" d="M 107.49957,80.739707 94.30424,38.17108 l 3.15965,0.710265 12.66875,42.45026 z"/><path style="fill:#000;stroke:#000;stroke-width:.58567727px;stroke-linecap:butt;stroke-linejoin:miter;stroke-opacity:1" id="path3826-0-0" d="m 111.39204,88.382606 -13.19533,-42.568628 3.15965,0.710265 12.66875,42.450261 z"/><path style="fill:#7cfc00;fill-opacity:1;stroke:#000;stroke-width:1;stroke-miterlimit:4;stroke-opacity:1;stroke-dasharray:none" id="path3910-3-9" d="m 37.752312,105.05677 a 7.8650646,7.6403489 0 1 1 -15.73013,0 7.8650646,7.6403489 0 1 1 15.73013,0 z" transform="matrix(1.2985728,0,0,1.0812803,69.45805,-27.729961)"/><path style="fill:#000;stroke:#000;stroke-width:.70223391px;stroke-linecap:butt;stroke-linejoin:miter;stroke-opacity:1" id="path3826-08" d="M 46.884128,85.158789 96.43513,39.627719 98.41717,41.436902 48.535827,86.666439 z"/><path style="fill:#7cfc00;fill-opacity:1;stroke:#000;stroke-width:1;stroke-miterlimit:4;stroke-opacity:1;stroke-dasharray:none" id="path3910-3-9-6" d="m 37.752312,105.05677 a 7.8650646,7.6403489 0 1 1 -15.73013,0 7.8650646,7.6403489 0 1 1 15.73013,0 z" transform="matrix(1.2985728,0,0,1.0812803,7.907483,-26.066904)"/><path style="fill:#000;stroke:#000;stroke-width:1;stroke-miterlimit:4;stroke-opacity:1;stroke-dasharray:none" id="path3910-53-4-5" d="m 37.752312,105.05677 a 7.8650646,7.6403489 0 1 1 -15.73013,0 7.8650646,7.6403489 0 1 1 15.73013,0 z" transform="matrix(1.5037757,0,0,1.2038282,55.122303,-84.377451)"/><path style="fill:#7cfc00;fill-opacity:1;stroke:#000;stroke-width:1;stroke-miterlimit:4;stroke-opacity:1;stroke-dasharray:none" id="path3910-3-9-6-9" d="m 37.752312,105.05677 a 7.8650646,7.6403489 0 1 1 -15.73013,0 7.8650646,7.6403489 0 1 1 15.73013,0 z" transform="matrix(1.2985728,0,0,1.0812803,61.277962,-71.773798)"/></svg>