<svg xmlns="http://www.w3.org/2000/svg" xmlns:svg="http://www.w3.org/2000/svg" id="svg2" width="150" height="150" version="1.1"><metadata id="metadata8"/><path style="fill:#000;stroke:#000;stroke-width:.44943228;stroke-miterlimit:4;stroke-opacity:1;stroke-dasharray:none" id="path3868"/><path style="fill:#000;stroke:#000;stroke-width:.44943228;stroke-miterlimit:4;stroke-opacity:1;stroke-dasharray:none" id="path3870"/><path style="fill:#000;stroke:#000;stroke-width:.44943228;stroke-miterlimit:4;stroke-opacity:1;stroke-dasharray:none" id="path3874"/><path style="fill:#000;stroke:#000;stroke-width:.44943228;stroke-miterlimit:4;stroke-opacity:1;stroke-dasharray:none" id="path3876"/><path style="fill:#000;fill-opacity:1;stroke:#000;stroke-width:1;stroke-miterlimit:4;stroke-opacity:1;stroke-dasharray:none" id="path3887-2-7" d="m 157.23819,125.73066 a 68.250603,45.8923 0 1 1 -136.501206,0 68.250603,45.8923 0 1 1 136.501206,0 z" transform="matrix(0.78642363,-0.57582985,0.55829395,0.83323153,-64.915896,26.09109)"/><path style="fill:#fff;stroke:#000;stroke-width:1;stroke-miterlimit:4;stroke-opacity:1;stroke-dasharray:none" id="path3887-2" d="m 157.23819,125.73066 a 68.250603,45.8923 0 1 1 -136.501206,0 68.250603,45.8923 0 1 1 136.501206,0 z" transform="matrix(0.74816408,-0.57266023,0.56048725,0.75717495,-61.206184,35.355533)"/><rect style="fill:#000;fill-opacity:1;stroke:#000;stroke-width:1.70096469;stroke-miterlimit:4;stroke-opacity:1;stroke-dasharray:none" id="rect2996" width="2.224" height="110.346" x="24.373" y="12.727" transform="matrix(0.79005351,0.61303788,-0.05563515,0.99845117,0,0)"/><rect style="fill:#000;fill-opacity:1;stroke:#000;stroke-width:1.87771249;stroke-miterlimit:4;stroke-opacity:1;stroke-dasharray:none" id="rect2996-8" width="2.582" height="115.858" x="33.044" y="-149.476" transform="matrix(-0.40994204,0.91211158,-0.99714603,0.07549697,0,0)"/><rect style="fill:#000;fill-opacity:1;stroke:#000;stroke-width:1.9575634;stroke-miterlimit:4;stroke-opacity:1;stroke-dasharray:none" id="rect2996-8-3" width="2.615" height="124.337" x="158.631" y="-207.522" transform="matrix(-0.43457322,0.90063651,-0.99752248,0.07034845,0,0)"/><rect style="fill:#000;fill-opacity:1;stroke:#000;stroke-width:1.62839556;stroke-miterlimit:4;stroke-opacity:1;stroke-dasharray:none" id="rect2996-1" width="2.043" height="110.105" x="183.362" y="-103.316" transform="matrix(0.74536469,0.66665694,0.03251421,0.99947127,0,0)"/></svg>