<svg xmlns="http://www.w3.org/2000/svg" xmlns:svg="http://www.w3.org/2000/svg" id="svg2" width="150" height="150" version="1.1"><metadata id="metadata8"/><path style="fill:#000;stroke:#000;stroke-width:1px;stroke-linecap:butt;stroke-linejoin:miter;stroke-opacity:1" id="path3826" d="M 27.415369,101.01188 94.83021,33.147608 97.526804,35.844202 29.66253,103.25904 z"/><path style="fill:#000;stroke:#000;stroke-width:1px;stroke-linecap:butt;stroke-linejoin:miter;stroke-opacity:1" id="path3826-9" d="M 74.336942,8.585686 142.20121,76.00053 139.50462,78.69712 72.089783,10.832847 z"/><path style="fill:#000;stroke:#000;stroke-width:.44943228;stroke-miterlimit:4;stroke-opacity:1;stroke-dasharray:none" id="path3868"/><path style="fill:#000;stroke:#000;stroke-width:.44943228;stroke-miterlimit:4;stroke-opacity:1;stroke-dasharray:none" id="path3870"/><path style="fill:#000;stroke:#000;stroke-width:.44943228;stroke-miterlimit:4;stroke-opacity:1;stroke-dasharray:none" id="path3874"/><path style="fill:#000;stroke:#000;stroke-width:.44943228;stroke-miterlimit:4;stroke-opacity:1;stroke-dasharray:none" id="path3876"/><path style="fill:#000;stroke:#000;stroke-width:1;stroke-miterlimit:4;stroke-opacity:1;stroke-dasharray:none" id="path3887" d="m 119.54898,125.73066 a 30.561396,31.010826 0 1 1 -61.122789,0 30.561396,31.010826 0 1 1 61.122789,0 z" transform="translate(-8,-32)"/><path style="fill:#fff;stroke:#000;stroke-width:1;stroke-miterlimit:4;stroke-opacity:1;stroke-dasharray:none" id="path3887-2" d="m 119.54898,125.73066 a 30.561396,31.010826 0 1 1 -61.122789,0 30.561396,31.010826 0 1 1 61.122789,0 z" transform="matrix(0.94205088,-0.0151452,0,0.94205088,-1.9892698,-23.500957)"/><path style="fill:#000;stroke:#000;stroke-width:1;stroke-miterlimit:4;stroke-opacity:1;stroke-dasharray:none" id="path3910" d="m 37.752312,105.05677 a 7.8650646,7.6403489 0 1 1 -15.73013,0 7.8650646,7.6403489 0 1 1 15.73013,0 z" transform="matrix(1.3524998,0,0,1.2452204,-9.6139391,-29.784506)"/><path style="fill:#0f0;stroke:#000;stroke-width:1;stroke-miterlimit:4;stroke-opacity:1;stroke-dasharray:none" id="path3910-3" d="m 37.752312,105.05677 a 7.8650646,7.6403489 0 1 1 -15.73013,0 7.8650646,7.6403489 0 1 1 15.73013,0 z" transform="matrix(1.2985728,0,0,1.0812803,-7.5780709,-12.561491)"/><path style="fill:#000;stroke:#000;stroke-width:1;stroke-miterlimit:4;stroke-opacity:1;stroke-dasharray:none" id="path3910-5" d="m 37.752312,105.05677 a 7.8650646,7.6403489 0 1 1 -15.73013,0 7.8650646,7.6403489 0 1 1 15.73013,0 z" transform="matrix(1.3524998,0,0,1.2452204,57.217326,-96.885906)"/><path style="fill:#0f0;stroke:#000;stroke-width:1;stroke-miterlimit:4;stroke-opacity:1;stroke-dasharray:none" id="path3910-3-5" d="m 37.752312,105.05677 a 7.8650646,7.6403489 0 1 1 -15.73013,0 7.8650646,7.6403489 0 1 1 15.73013,0 z" transform="matrix(1.2985728,0,0,1.0812803,59.253194,-79.662886)"/></svg>