<svg xmlns="http://www.w3.org/2000/svg" xmlns:svg="http://www.w3.org/2000/svg" id="svg2" width="100" height="100" version="1.1"><title id="title3808">LibreCAD Icon</title><defs id="defs4"><style id="style2989" type="text/css">.fil2{fill:#4d4d4d}.fil1{fill:#8ed900}.fil0{fill:#fff}</style></defs><metadata id="metadata7"/><g id="layer1" transform="translate(-226.69563,-436.90297)"><rect id="_471971136" width="99.999" height="100" x="226.696" y="436.903" class="fil0" style="fill:#fff"/><path style="fill:#8ed900" id="path3001" d="m 276.6955,436.91878 c -27.61368,0 -50,22.3545 -50,49.96875 0,27.61426 22.38632,50 50,50 27.61426,0 50,-22.38574 50,-50 0,-27.61425 -22.38574,-49.96875 -50,-49.96875 z m 0,12 c 20.98704,0 38,16.98228 38,37.96875 0,20.98704 -17.01296,38.03125 -38,38.03125 -20.98646,0 -38,-17.04421 -38,-38.03125 0,-20.98647 17.01354,-37.96875 38,-37.96875 z"/><g id="g3010" transform="translate(-95.35188,-39.277969)"><polygon transform="matrix(5.7120336,0,0,5.7120336,322.04724,476.18085)" style="fill:#4d4d4d" id="_471970800" points="0 6.653 4.202 6.653 4.202 7.703 17.507 7.703 17.507 9.804 4.202 9.804 4.202 10.854 0 10.854" class="fil2"/><g id="g3004"><rect id="_471970680" width="12.138" height="12.139" x="409.909" y="476.181" class="fil1" style="fill:#8ed900"/><rect id="_471970560" width="12.138" height="12.139" x="409.909" y="564.043" class="fil1" style="fill:#8ed900"/><rect id="_471970440" width="12.138" height="12.139" x="322.048" y="476.181" class="fil1" style="fill:#8ed900"/><rect id="_471970368" width="12.138" height="12.139" x="322.048" y="564.043" class="fil1" style="fill:#8ed900"/></g></g></g></svg>