<svg xmlns="http://www.w3.org/2000/svg" xmlns:svg="http://www.w3.org/2000/svg" id="svg2" width="256" height="256" version="1.1" viewBox="0 0 256 256"><defs id="defs4"><marker style="overflow:visible" id="Arrow2Lend" orient="auto" refX="0" refY="0"><path id="path4196" d="M 8.7185878,4.0337352 L -2.2072895,0.016013256 L 8.7185884,-4.0017078 C 6.9730900,-1.6296469 6.9831476,1.6157441 8.7185878,4.0337352 z" transform="scale(1.1) rotate(180) translate(1,0)" style="fill-rule:evenodd;stroke-width:.625;stroke-linejoin:round;stroke:#000;stroke-opacity:1;fill:#000;fill-opacity:1"/></marker><marker style="overflow:visible" id="Arrow2Lstart" orient="auto" refX="0" refY="0"><path id="path4193" d="M 8.7185878,4.0337352 L -2.2072895,0.016013256 L 8.7185884,-4.0017078 C 6.9730900,-1.6296469 6.9831476,1.6157441 8.7185878,4.0337352 z" transform="scale(1.1) translate(1,0)" style="fill-rule:evenodd;stroke-width:.625;stroke-linejoin:round;stroke:#000;stroke-opacity:1;fill:#000;fill-opacity:1"/></marker><marker style="overflow:visible" id="Arrow1Mstart" orient="auto" refX="0" refY="0"><path transform="scale(0.4) translate(10,0)" style="fill-rule:evenodd;stroke:#000;stroke-width:1pt;stroke-opacity:1;fill:#000;fill-opacity:1" id="path4181" d="M 0.0,0.0 L 5.0,-5.0 L -12.5,0.0 L 5.0,5.0 L 0.0,0.0 z"/></marker></defs><metadata id="metadata7"/><g id="g8827"><path id="path4163" d="m 32,204 200,0" style="fill:none;fill-rule:evenodd;stroke:#000;stroke-width:8;stroke-linecap:butt;stroke-linejoin:miter;stroke-miterlimit:4;stroke-dasharray:none;stroke-dashoffset:8;stroke-opacity:1"/><path style="fill:none;fill-rule:evenodd;stroke:#000;stroke-width:8;stroke-linecap:butt;stroke-linejoin:miter;stroke-miterlimit:4;stroke-dasharray:none;stroke-dashoffset:8;stroke-opacity:1" id="path5049" d="M 24,184 184,24"/><g id="text5035" style="font-style:normal;font-variant:normal;font-weight:400;font-stretch:normal;font-size:80px;line-height:100%;font-family:Mael;-inkscape-font-specification:'Mael, Normal';text-align:start;letter-spacing:0;word-spacing:0;writing-mode:lr-tb;text-anchor:start;fill:#000;fill-opacity:1;stroke:none;stroke-width:1px;stroke-linecap:butt;stroke-linejoin:miter;stroke-opacity:1" transform="matrix(1.0132811,0,0,0.98689297,-40,8)"><path id="path4829" d="m 162.09168,162.74629 q 5.04,0 8.48,-4 3.12,-3.6 3.68,-8.88 0.24,-2.24 0.24,-3.92 0,-18.08 -18.72,-17.92 -5.44,0.08 -8.4,6.88 -2.24,5.2 -2.24,11.52 0,8.16 6,12.64 4.96,3.68 10.96,3.68 z m 17.28,7.44 q -0.48,-1.92 -1.04,-7.36 -0.16,-1.12 -0.64,-5.92 -4.72,5.84 -11.6,9.52 -7.44,4 -14.48,4 -8.64,0 -13.44,-6.56 -4.32,-5.84 -4.32,-14.72 0,-9.84 6.56,-16.48 4.88,-4.96 15.52,-9.52 3.36,-1.44 7.44,-1.44 8.96,0 14.16,6.4 0.64,-2.32 1.6,-4.16 0.88,0.24 2,0.24 4.8,0 11.84,-2.96 -4.8,3.76 -4.8,19.04 0,2.56 0.16,7.68 0.24,5.12 0.24,7.68 0,5.52 0.96,8.24 1.6,4.56 6.08,6.08 l -16.24,0.24 z"/></g><path id="circle8825" d="M 157.20888,75.442462 A 200,200 0 0 1 203.23894,186.56883" style="opacity:1;fill:none;fill-opacity:1;fill-rule:nonzero;stroke:#000;stroke-width:8;stroke-linecap:butt;stroke-linejoin:round;stroke-miterlimit:4;stroke-dasharray:none;stroke-dashoffset:14.15999985;stroke-opacity:1"/><path id="path4192" d="m 204,196 17.99999,-32 -36,0 18,32" style="fill:#00ff7f;fill-rule:evenodd;stroke:#000;stroke-width:8;stroke-linecap:round;stroke-linejoin:miter;stroke-miterlimit:4;stroke-dasharray:none;stroke-opacity:1"/><path id="path6026" d="m 150.00001,69.999995 9.89949,35.355335 25.45583,-25.455843 -35.35532,-9.899492" style="fill:#00ff7f;fill-opacity:1;fill-rule:evenodd;stroke:#000;stroke-width:8;stroke-linecap:round;stroke-linejoin:miter;stroke-miterlimit:4;stroke-dasharray:none;stroke-opacity:1"/></g></svg>