<svg xmlns="http://www.w3.org/2000/svg" xmlns:svg="http://www.w3.org/2000/svg" id="svg2" width="256" height="256" version="1.1" viewBox="0 0 256 256"><defs id="defs4"><marker style="overflow:visible" id="Arrow2Lend" orient="auto" refX="0" refY="0"><path id="path4196" d="M 8.7185878,4.0337352 L -2.2072895,0.016013256 L 8.7185884,-4.0017078 C 6.9730900,-1.6296469 6.9831476,1.6157441 8.7185878,4.0337352 z" transform="scale(1.1) rotate(180) translate(1,0)" style="fill-rule:evenodd;stroke-width:.625;stroke-linejoin:round;stroke:#000;stroke-opacity:1;fill:#000;fill-opacity:1"/></marker><marker style="overflow:visible" id="Arrow2Lstart" orient="auto" refX="0" refY="0"><path id="path4193" d="M 8.7185878,4.0337352 L -2.2072895,0.016013256 L 8.7185884,-4.0017078 C 6.9730900,-1.6296469 6.9831476,1.6157441 8.7185878,4.0337352 z" transform="scale(1.1) translate(1,0)" style="fill-rule:evenodd;stroke-width:.625;stroke-linejoin:round;stroke:#000;stroke-opacity:1;fill:#000;fill-opacity:1"/></marker><marker style="overflow:visible" id="Arrow1Mstart" orient="auto" refX="0" refY="0"><path transform="scale(0.4) translate(10,0)" style="fill-rule:evenodd;stroke:#000;stroke-width:1pt;stroke-opacity:1;fill:#000;fill-opacity:1" id="path4181" d="M 0.0,0.0 L 5.0,-5.0 L -12.5,0.0 L 5.0,5.0 L 0.0,0.0 z"/></marker></defs><metadata id="metadata7"/><g id="g8849" transform="translate(0,-8)"><path id="path4163" d="m 48,180 160,0" style="fill:none;fill-rule:evenodd;stroke:#000;stroke-width:8;stroke-linecap:butt;stroke-linejoin:miter;stroke-miterlimit:4;stroke-dasharray:none;stroke-opacity:1"/><circle id="path4146" cx="52" cy="180" r="24" style="opacity:.98000004;fill:#00ff7f;fill-opacity:1;stroke:#000;stroke-width:8;stroke-linecap:butt;stroke-linejoin:bevel;stroke-miterlimit:4;stroke-dasharray:none;stroke-dashoffset:6;stroke-opacity:1"/><circle id="path4146-5" cx="204" cy="180" r="24" style="opacity:.98000004;fill:#00ff7f;fill-opacity:1;stroke:#000;stroke-width:8;stroke-linecap:butt;stroke-linejoin:bevel;stroke-miterlimit:4;stroke-dasharray:none;stroke-dashoffset:6;stroke-opacity:1"/></g><g transform="scale(1.0132811,0.98689299)" style="font-style:normal;font-variant:normal;font-weight:400;font-stretch:normal;font-size:121.51124573px;line-height:125%;font-family:sans-serif;text-align:start;letter-spacing:0;word-spacing:0;writing-mode:lr-tb;text-anchor:start;fill:#000;fill-opacity:1;stroke:none;stroke-width:1px;stroke-linecap:butt;stroke-linejoin:miter;stroke-opacity:1" id="text4441"><path d="m 151.86633,73.663851 q 0,5.814503 -2.07661,10.383041 -2.07661,4.509206 -5.45851,8.009774 -3.32258,3.381905 -7.65379,6.348488 -4.33121,2.966586 -9.19641,5.755176 l 0,13.34962 -10.62036,0 0,-18.096158 q 3.85655,-2.195271 8.30643,-4.805864 4.50921,-2.610594 7.35713,-5.280518 3.44123,-3.085247 5.33985,-6.348488 1.89861,-3.322573 1.89861,-8.425096 0,-6.704478 -4.56854,-9.96772 -4.50921,-3.322573 -11.68834,-3.322573 -6.40782,0 -12.16299,2.017277 -5.69584,2.017276 -9.01841,4.093884 l -0.59332,0 0,-12.103659 q 4.15322,-1.601955 10.50171,-2.84792 6.40782,-1.305296 12.10366,-1.305296 12.7563,0 20.11343,6.229824 7.41646,6.170493 7.41646,16.316208 z m -23.43601,67.578759 -12.10366,0 0,-12.51898 12.10366,0 0,12.51898 z" style="font-style:normal;font-variant:normal;font-weight:400;font-stretch:normal;font-size:121.51124573px;line-height:125%;font-family:sans-serif;text-align:start;writing-mode:lr-tb;text-anchor:start" id="path4205"/></g><path style="color:#000;display:inline;overflow:visible;visibility:visible;fill:#000;fill-rule:evenodd;stroke:none;stroke-width:1;stroke-linecap:butt;stroke-linejoin:miter;stroke-miterlimit:4;stroke-dasharray:none;stroke-dashoffset:0;stroke-opacity:1;marker:none;marker-start:none;marker-mid:none;marker-end:none;enable-background:accumulate" id="path4488" d="m 80,132 c 0,-10.66667 0,-21.33333 0,-32 -2e-6,0 -3e-6,0 -5e-6,0 -10.666663,5.33333 -21.333327,10.66667 -31.99999,16 -2e-6,0 -3e-6,0 -5e-6,0 10.666667,5.33333 21.333333,10.66667 32,16 z"/><path style="color:#000;display:inline;overflow:visible;visibility:visible;fill:#000;fill-rule:evenodd;stroke:none;stroke-width:1;stroke-linecap:butt;stroke-linejoin:miter;stroke-miterlimit:4;stroke-dasharray:none;stroke-dashoffset:0;stroke-opacity:1;marker:none;marker-start:none;marker-mid:none;marker-end:none;enable-background:accumulate" id="path4499" d="m 176,100 c 0,10.66667 0,21.33333 0,32 0,0 0,0 0,0 10.66667,-5.33333 21.33333,-10.66667 32,-16 0,0 0,0 0,0 -10.66667,-5.33333 -21.33333,-10.66667 -32,-16 z"/><path style="fill:none;fill-rule:evenodd;stroke:#000;stroke-width:8;stroke-linecap:butt;stroke-linejoin:miter;stroke-miterlimit:4;stroke-dasharray:none;stroke-opacity:1" id="path4194" d="m 80,116 24,0"/><path style="fill:none;fill-rule:evenodd;stroke:#000;stroke-width:8;stroke-linecap:butt;stroke-linejoin:miter;stroke-miterlimit:4;stroke-dasharray:none;stroke-opacity:1" id="path4197" d="m 152,116 24,0"/></svg>