<svg xmlns="http://www.w3.org/2000/svg" xmlns:svg="http://www.w3.org/2000/svg" id="svg2" width="256" height="256" version="1.1" viewBox="0 0 256 256"><defs id="defs4"><marker style="overflow:visible" id="Arrow2Lend" orient="auto" refX="0" refY="0"><path id="path4196" d="M 8.7185878,4.0337352 L -2.2072895,0.016013256 L 8.7185884,-4.0017078 C 6.9730900,-1.6296469 6.9831476,1.6157441 8.7185878,4.0337352 z" transform="scale(1.1) rotate(180) translate(1,0)" style="fill-rule:evenodd;stroke-width:.625;stroke-linejoin:round;stroke:#000;stroke-opacity:1;fill:#000;fill-opacity:1"/></marker><marker style="overflow:visible" id="Arrow2Lstart" orient="auto" refX="0" refY="0"><path id="path4193" d="M 8.7185878,4.0337352 L -2.2072895,0.016013256 L 8.7185884,-4.0017078 C 6.9730900,-1.6296469 6.9831476,1.6157441 8.7185878,4.0337352 z" transform="scale(1.1) translate(1,0)" style="fill-rule:evenodd;stroke-width:.625;stroke-linejoin:round;stroke:#000;stroke-opacity:1;fill:#000;fill-opacity:1"/></marker><marker style="overflow:visible" id="Arrow1Mstart" orient="auto" refX="0" refY="0"><path transform="scale(0.4) translate(10,0)" style="fill-rule:evenodd;stroke:#000;stroke-width:1pt;stroke-opacity:1;fill:#000;fill-opacity:1" id="path4181" d="M 0.0,0.0 L 5.0,-5.0 L -12.5,0.0 L 5.0,5.0 L 0.0,0.0 z"/></marker></defs><metadata id="metadata7"/><g id="g10896"><path id="path10813" d="M 60,176 60,80" style="fill:none;fill-rule:evenodd;stroke:#000;stroke-width:8;stroke-linecap:butt;stroke-linejoin:miter;stroke-miterlimit:4;stroke-dasharray:none;stroke-opacity:1"/><path id="path10815" d="m 80,196 96,0" style="fill:none;fill-rule:evenodd;stroke:#000;stroke-width:8;stroke-linecap:butt;stroke-linejoin:miter;stroke-miterlimit:4;stroke-dasharray:none;stroke-opacity:1"/><path style="fill:none;fill-rule:evenodd;stroke:#000;stroke-width:8;stroke-linecap:butt;stroke-linejoin:miter;stroke-miterlimit:4;stroke-dasharray:none;stroke-opacity:1" id="path10824" d="m 80,60 96,0"/><path style="fill:none;fill-rule:evenodd;stroke:#000;stroke-width:8;stroke-linecap:butt;stroke-linejoin:miter;stroke-miterlimit:4;stroke-dasharray:none;stroke-opacity:1" id="path10826" d="m 196,176 0,-96"/><path id="path10864" d="M 232,232 204,223.79899 176,232 184.20101,204 176,176 204,184.20101 232,176 l -8.20101,28 z" transform="matrix(0,1,-1,0,264,-8.0000001)" style="opacity:1;fill:#00ff7f;fill-opacity:1;fill-rule:nonzero;stroke:#000;stroke-width:0;stroke-linecap:butt;stroke-linejoin:round;stroke-miterlimit:4;stroke-dasharray:none;stroke-dashoffset:14.15999985;stroke-opacity:1"/><g id="g10866" transform="matrix(-2.5054766,-2.5055159,2.5055159,-2.5054766,-81.42277,377.01823)" style="stroke-width:2.25777793;stroke-miterlimit:4;stroke-dasharray:none"><path id="path10868" d="m 2.2577797,64.346716 11.2888893,-8.8e-5" style="fill:none;fill-rule:evenodd;stroke:#000;stroke-width:2.25777793;stroke-linecap:butt;stroke-linejoin:miter;stroke-miterlimit:4;stroke-dasharray:none;stroke-opacity:1"/><path id="path10870" d="m 7.9022689,69.991117 -8.86e-5,-11.28889" style="fill:none;fill-rule:evenodd;stroke:#000;stroke-width:2.25777793;stroke-linecap:butt;stroke-linejoin:miter;stroke-miterlimit:4;stroke-dasharray:none;stroke-opacity:1"/></g><path style="opacity:1;fill:#00ff7f;fill-opacity:1;fill-rule:nonzero;stroke:#000;stroke-width:0;stroke-linecap:butt;stroke-linejoin:round;stroke-miterlimit:4;stroke-dasharray:none;stroke-dashoffset:14.15999985;stroke-opacity:1" id="path10872" d="M 232,232 204,223.79899 176,232 184.20101,204 176,176 204,184.20101 232,176 l -8.20101,28 z" transform="matrix(0,1,-1,0,400,-144)"/><g style="stroke-width:2.25777793;stroke-miterlimit:4;stroke-dasharray:none" id="g10874" transform="matrix(-2.5054766,-2.5055159,2.5055159,-2.5054766,54.57723,241.01823)"><path style="fill:none;fill-rule:evenodd;stroke:#000;stroke-width:2.25777793;stroke-linecap:butt;stroke-linejoin:miter;stroke-miterlimit:4;stroke-dasharray:none;stroke-opacity:1" id="path10876" d="m 2.2577797,64.346716 11.2888893,-8.8e-5"/><path style="fill:none;fill-rule:evenodd;stroke:#000;stroke-width:2.25777793;stroke-linecap:butt;stroke-linejoin:miter;stroke-miterlimit:4;stroke-dasharray:none;stroke-opacity:1" id="path10878" d="m 7.9022689,69.991117 -8.86e-5,-11.28889"/></g><path style="opacity:1;fill:#00ff7f;fill-opacity:1;fill-rule:nonzero;stroke:#000;stroke-width:0;stroke-linecap:butt;stroke-linejoin:round;stroke-miterlimit:4;stroke-dasharray:none;stroke-dashoffset:14.15999985;stroke-opacity:1" id="path10880" d="m -31.999996,-31.999996 -28,-8.20101 -28.000001,8.20101 8.201011,-28 -8.201011,-28.000001 28,8.201011 28.000001,-8.201011 -8.20101,28 z" transform="scale(-1,-1)"/><g style="stroke-width:2.25777793;stroke-miterlimit:4;stroke-dasharray:none" id="g10882" transform="matrix(2.5055159,-2.5054766,2.5054766,2.5055159,-121.01823,-81.422768)"><path style="fill:none;fill-rule:evenodd;stroke:#000;stroke-width:2.25777793;stroke-linecap:butt;stroke-linejoin:miter;stroke-miterlimit:4;stroke-dasharray:none;stroke-opacity:1" id="path10884" d="m 2.2577797,64.346716 11.2888893,-8.8e-5"/><path style="fill:none;fill-rule:evenodd;stroke:#000;stroke-width:2.25777793;stroke-linecap:butt;stroke-linejoin:miter;stroke-miterlimit:4;stroke-dasharray:none;stroke-opacity:1" id="path10886" d="m 7.9022689,69.991117 -8.86e-5,-11.28889"/></g><path id="path10888" d="m -168,-168 -28,-8.20101 -28,8.20101 8.20101,-28 -8.20101,-28 28,8.20101 28,-8.20101 -8.20101,28 z" transform="scale(-1,-1)" style="opacity:1;fill:#00ff7f;fill-opacity:1;fill-rule:nonzero;stroke:#000;stroke-width:0;stroke-linecap:butt;stroke-linejoin:round;stroke-miterlimit:4;stroke-dasharray:none;stroke-dashoffset:14.15999985;stroke-opacity:1"/><g id="g10890" transform="matrix(2.5055159,-2.5054766,2.5054766,2.5055159,14.981768,54.577232)" style="stroke-width:2.25777793;stroke-miterlimit:4;stroke-dasharray:none"><path id="path10892" d="m 2.2577797,64.346716 11.2888893,-8.8e-5" style="fill:none;fill-rule:evenodd;stroke:#000;stroke-width:2.25777793;stroke-linecap:butt;stroke-linejoin:miter;stroke-miterlimit:4;stroke-dasharray:none;stroke-opacity:1"/><path id="path10894" d="m 7.9022689,69.991117 -8.86e-5,-11.28889" style="fill:none;fill-rule:evenodd;stroke:#000;stroke-width:2.25777793;stroke-linecap:butt;stroke-linejoin:miter;stroke-miterlimit:4;stroke-dasharray:none;stroke-opacity:1"/></g></g></svg>