<svg xmlns="http://www.w3.org/2000/svg" xmlns:svg="http://www.w3.org/2000/svg" id="svg4295" width="80" height="80" version="1.1" viewBox="0 0 22.578 22.578"><metadata id="metadata4325"/><g id="g4712" transform="matrix(0.3125,0,0,0.3125,1.0644659,0.35572153)"><path style="fill:none;stroke:#000;stroke-width:2.25777793;stroke-linecap:round;stroke-linejoin:miter;stroke-miterlimit:4;stroke-dasharray:none;stroke-opacity:1" id="path7993" d="m 42.708182,15.230874 c 0,0 0.691055,-3.946196 -2.764219,-7.3286516 C 38.624973,6.6110293 36.470669,5.7663995 34.415525,5.6472523 31.509112,5.4787527 28.324066,6.3448424 26.122867,7.9022224 19.21232,14.103389 22.46533,20.3487 18.081707,24.818741 15.317487,27.637452 9.7721439,25.017476 5.6174114,21.43204"/><rect id="rect7975" width="33.867" height="47.413" x="25.964" y="16.933" rx="6.004" ry="6.004" style="opacity:1;fill:#fff;fill-opacity:1;fill-rule:nonzero;stroke:#000;stroke-width:2.25777793;stroke-linecap:butt;stroke-linejoin:miter;stroke-miterlimit:4;stroke-dasharray:none;stroke-dashoffset:7.99253368;stroke-opacity:1"/><path id="path7977" d="m 25.964447,34.995553 33.866669,0" style="fill:none;fill-rule:evenodd;stroke:#000;stroke-width:2.25777793;stroke-linecap:butt;stroke-linejoin:miter;stroke-miterlimit:4;stroke-dasharray:none;stroke-opacity:1"/><path style="fill:none;fill-rule:evenodd;stroke:#000;stroke-width:2.25777793;stroke-linecap:butt;stroke-linejoin:miter;stroke-miterlimit:4;stroke-dasharray:none;stroke-opacity:1" id="path7981" d="m 37.253339,34.995555 0,-18.062224"/><path id="path7983" d="m 48.542219,34.995555 0,-18.062224" style="fill:none;fill-rule:evenodd;stroke:#000;stroke-width:2.25777793;stroke-linecap:butt;stroke-linejoin:miter;stroke-miterlimit:4;stroke-dasharray:none;stroke-opacity:1"/><path id="path7985" d="m 38.382773,25.936343 0,-7.83293 4.503009,0 4.503005,0 0,7.83293 0,7.832929 -4.503005,0 -4.503009,0 z" style="opacity:1;fill:#00ff7f;fill-opacity:1;fill-rule:nonzero;stroke:#000;stroke-width:0;stroke-linecap:butt;stroke-linejoin:miter;stroke-miterlimit:4;stroke-dasharray:none;stroke-dashoffset:28.31999969;stroke-opacity:1"/></g></svg>