<svg xmlns="http://www.w3.org/2000/svg" xmlns:svg="http://www.w3.org/2000/svg" id="svg4295" width="256" height="256" version="1.1" viewBox="0 0 72.249 72.249"><metadata id="metadata4325"/><path style="fill:#000;stroke-width:1.32067609;stroke-miterlimit:4;stroke-dasharray:none" id="rect4722" d="M 125 121 L 125 126 L 120 126 L 120 131 L 125 131 L 125 136 L 130 136 L 130 131 L 135 131 L 135 126 L 130 126 L 130 121 L 125 121 z" transform="scale(0.28222223)"/><path style="fill:#000;stroke-width:5;stroke-miterlimit:4;stroke-dasharray:none" id="rect4726" d="M 60 61 L 60 66 L 60 191 L 60 196 L 65 196 L 190 196 L 195 196 L 195 66 L 195 61 L 60 61 z M 65 66 L 190 66 L 190 191 L 65 191 L 65 66 z" transform="scale(0.28222223)"/></svg>