<svg xmlns="http://www.w3.org/2000/svg" xmlns:svg="http://www.w3.org/2000/svg" id="svg4295" width="256" height="256" version="1.1" viewBox="0 0 72.249 72.249"><metadata id="metadata4325"/><path style="display:inline;fill:#000;stroke-width:6.25782633;stroke-miterlimit:4;stroke-dasharray:none" id="path4671" d="M 129.13281 66.021484 A 62.499999 62.499999 0 0 0 65.025391 126.74023 L 65.011719 127.24609 A 62.499999 62.499999 0 0 0 126.11914 190.98438 A 62.499999 62.499999 0 0 0 189.98242 130.00586 A 62.499999 62.499999 0 0 0 129.13281 66.021484 z M 129.00391 71.033203 A 57.732794 57.26626 44.999608 0 1 184.98438 130.35352 A 57.732794 57.26626 44.999608 0 1 126.23047 185.97461 A 57.732794 57.26626 44.999608 0 1 70.011719 126.88086 L 70.023438 126.41406 A 57.732794 57.26626 44.999608 0 1 129.00391 71.033203 z" transform="scale(0.28222223)"/><path style="fill:#000;stroke-width:1.32067609;stroke-miterlimit:4;stroke-dasharray:none" id="rect4722" d="M 125 121 L 125 126 L 120 126 L 120 131 L 125 131 L 125 136 L 130 136 L 130 131 L 135 131 L 135 126 L 130 126 L 130 121 L 125 121 z" transform="scale(0.28222223)"/></svg>