<svg xmlns="http://www.w3.org/2000/svg" xmlns:svg="http://www.w3.org/2000/svg" id="svg4295" width="256" height="256" version="1.1" viewBox="0 0 72.249 72.249"><metadata id="metadata4325"/><path style="display:inline;fill:#000;stroke-width:6.25782633;stroke-miterlimit:4;stroke-dasharray:none" id="path4671" d="M 129.13281,66.021484 A 62.499999,62.499999 0 0 0 65.025391,126.74023 l -0.01367,0.50586 a 62.499999,62.499999 0 0 0 61.107419,63.73829 62.499999,62.499999 0 0 0 63.86328,-60.97852 62.499999,62.499999 0 0 0 -60.84961,-63.984376 z m -0.1289,5.011719 a 57.732794,57.26626 44.999608 0 1 55.98047,59.320317 57.732794,57.26626 44.999608 0 1 -58.75391,55.62109 57.732794,57.26626 44.999608 0 1 -56.218751,-59.09375 l 0.01172,-0.4668 A 57.732794,57.26626 44.999608 0 1 129.00391,71.033203 Z" transform="scale(0.28222223)"/><path id="path4651" style="display:inline;fill:none;stroke:#000;stroke-width:1.42726827;stroke-linecap:butt;stroke-linejoin:miter;stroke-miterlimit:4;stroke-dasharray:none;stroke-opacity:1" d="M 5.6502239,5.9322252 66.293055,66.598801 m 0,-60.666576 -60.6428312,60.666576"/><path id="rect17" style="display:inline;fill:#000;stroke-width:.28222224" d="m 16.933334,17.215555 h 1.411111 v 38.100002 h -1.411111 z m 0,36.688891 h 38.100003 v 1.411111 H 16.933334 Z M 53.622223,18.626667 h 1.411111 V 53.904446 H 53.622223 Z M 16.933334,17.215555 h 38.100003 v 1.411111 H 16.933334 Z"/></svg>