<svg xmlns="http://www.w3.org/2000/svg" xmlns:svg="http://www.w3.org/2000/svg" id="svg4295" width="256" height="256" version="1.1" viewBox="0 0 72.249 72.249"><metadata id="metadata4325"/><g id="g4158"><path id="path4163" d="m 10.160001,64.346671 0,-51.928892 4.515556,-4.5155563 24.835557,0 6.773333,6.7733333 0,49.671115 -36.124446,0" style="fill:#fff;fill-rule:evenodd;stroke:#000;stroke-width:2.25777793;stroke-linecap:square;stroke-linejoin:miter;stroke-miterlimit:4;stroke-dasharray:none;stroke-opacity:1"/><path id="path4165" d="m 12.417779,62.088893 0,-47.413337 3.386666,-3.386666 18.062224,0 4.515556,4.515555 0,46.284448 z" style="fill:#00ff7f;fill-opacity:1;fill-rule:evenodd;stroke:#000;stroke-width:0;stroke-linecap:butt;stroke-linejoin:miter;stroke-miterlimit:4;stroke-dasharray:none;stroke-opacity:1"/><g id="g4137" transform="matrix(0.65217391,0,0,0.65277778,21.596137,16.666791)"><path style="fill:#000;fill-rule:evenodd;stroke:#000;stroke-width:3.46032453;stroke-linecap:butt;stroke-linejoin:miter;stroke-miterlimit:4;stroke-dasharray:none;stroke-opacity:1" id="path4275" d="m 10.160001,55.7479 0,-27.525676 51.928892,0 0,27.525676 z"/><path style="fill:#00ff7f;fill-rule:evenodd;stroke:#000;stroke-width:3.46032453;stroke-linecap:butt;stroke-linejoin:miter;stroke-miterlimit:4;stroke-dasharray:none;stroke-opacity:1" id="path4277" d="m 24.007705,31.536835 24.233483,0 0,-24.2110658 -24.233483,0 z"/><path style="fill:#00ff7f;fill-rule:evenodd;stroke:#000;stroke-width:3.46032453;stroke-linecap:butt;stroke-linejoin:miter;stroke-miterlimit:4;stroke-dasharray:none;stroke-opacity:1" id="path4279" d="m 15.82326,62.665347 40.640003,0 -6.923852,-13.834894 -26.829928,0 z"/><path style="fill:#fff;fill-rule:evenodd;stroke:#000;stroke-width:3.46032453;stroke-linecap:butt;stroke-linejoin:miter;stroke-miterlimit:4;stroke-dasharray:none;stroke-opacity:1" id="path4281" d="m 24.007705,31.536835 -5.192889,13.834894 34.619261,0 -5.192889,-13.834894 z"/></g></g></svg>