<svg xmlns="http://www.w3.org/2000/svg" xmlns:svg="http://www.w3.org/2000/svg" id="svg4295" width="256" height="256" version="1.1" viewBox="0 0 72.249 72.249"><metadata id="metadata4325"/><g id="g4269"><g id="g4245" transform="matrix(0.70710678,-0.70710678,0.70710678,0.70710678,-36.186633,15.531957)"><path id="path4247" d="m 60.960004,50.800003 -38.382225,0 -13.5466672,4.515556 13.5466672,4.515556 39.511114,0 0,-9.031112" style="fill:none;fill-rule:evenodd;stroke:#000;stroke-width:2.25777793;stroke-linecap:square;stroke-linejoin:miter;stroke-miterlimit:4;stroke-dasharray:none;stroke-opacity:1"/><path id="path4249" d="m 18.062224,55.315559 -5.644445,0" style="fill:none;fill-rule:evenodd;stroke:#000;stroke-width:4.51555586;stroke-linecap:butt;stroke-linejoin:miter;stroke-miterlimit:4;stroke-dasharray:none;stroke-opacity:1"/><path id="path4251" d="m 22.577779,57.573337 38.426054,0" style="fill:#00ff7f;fill-rule:evenodd;stroke:#00ff7f;stroke-width:2.25777793;stroke-linecap:butt;stroke-linejoin:miter;stroke-miterlimit:4;stroke-dasharray:none;stroke-opacity:1"/><path style="fill:#00ff7f;fill-rule:evenodd;stroke:#00ff7f;stroke-width:2.25777793;stroke-linecap:butt;stroke-linejoin:miter;stroke-miterlimit:4;stroke-dasharray:none;stroke-opacity:1" id="path4253" d="m 22.577779,55.315559 38.426054,0"/><path id="path4255" d="m 22.577779,53.057781 38.426054,0" style="fill:#fff;fill-rule:evenodd;stroke:#fff;stroke-width:2.25777793;stroke-linecap:butt;stroke-linejoin:miter;stroke-miterlimit:4;stroke-dasharray:none;stroke-opacity:1"/></g><g id="g4265"><path style="opacity:1;fill:none;fill-opacity:1;fill-rule:evenodd;stroke:#000;stroke-width:2.25777793;stroke-linecap:square;stroke-miterlimit:4;stroke-dasharray:none;stroke-opacity:1" id="path4261" d="M 46.284676,32.73775 A 15.804678,15.804742 0 0 1 60.886294,42.494279 15.804678,15.804742 0 0 1 57.46027,59.718132 15.804678,15.804742 0 0 1 40.236487,63.144169 15.804678,15.804742 0 0 1 30.479998,48.542491"/><path style="fill:#000;fill-opacity:1;fill-rule:evenodd;stroke:#000;stroke-width:.28222224px;stroke-linecap:butt;stroke-linejoin:miter;stroke-opacity:1" id="path4263" d="m 45.155559,27.093335 -6.773334,5.644445 6.773334,5.644445 z"/></g></g></svg>