<svg xmlns="http://www.w3.org/2000/svg" xmlns:svg="http://www.w3.org/2000/svg" id="svg4295" width="256" height="256" version="1.1" viewBox="0 0 72.249 72.249"><metadata id="metadata4325"/><g id="g6616" transform="translate(-6.7733337,-9.0311116)"><circle id="path6586" cx="50.8" cy="41.769" r="9.031" style="opacity:1;fill:#00ff7f;fill-opacity:1;fill-rule:nonzero;stroke:#000;stroke-width:2.25777817;stroke-linecap:square;stroke-linejoin:miter;stroke-miterlimit:4;stroke-dasharray:none;stroke-opacity:1"/><path id="path6588" d="m 50.800005,60.960004 0,-38.382225" style="fill:none;fill-rule:evenodd;stroke:#000;stroke-width:2.25777793;stroke-linecap:butt;stroke-linejoin:miter;stroke-miterlimit:4;stroke-dasharray:none;stroke-opacity:1"/><path id="path6590" d="m 31.608891,41.768893 38.382225,0" style="fill:none;fill-rule:evenodd;stroke:#000;stroke-width:2.25777793;stroke-linecap:butt;stroke-linejoin:miter;stroke-miterlimit:4;stroke-dasharray:none;stroke-opacity:1"/><g id="g4801" transform="translate(51.669486,0.73709656)"><path style="fill:#fff;fill-opacity:1;fill-rule:evenodd;stroke:#000;stroke-width:2.25777793;stroke-linecap:butt;stroke-linejoin:miter;stroke-miterlimit:4;stroke-dasharray:none;stroke-opacity:1" id="path4777" d="m -22.583328,66.172298 2.710705,-2.710711 3.879641,-0.843251 9.3034591,-9.288997 -1.5958442,-1.595901 11.1733096,-11.177552 -3.19298016,-3.19298 -11.17330934,11.177552 -7.983098,-7.983041 -9.303461,9.288995 -5.072179,5.072185 z"/><path style="fill:#fff;fill-opacity:1;fill-rule:evenodd;stroke:#000;stroke-width:2.25777793;stroke-linecap:butt;stroke-linejoin:miter;stroke-miterlimit:4;stroke-dasharray:none;stroke-opacity:1" id="path4779" d="m -7.4943526,44.542002 -7.9830964,-7.98304 -3.542213,3.542212"/><path style="opacity:1;fill:#fff;fill-opacity:1;fill-rule:nonzero;stroke:#000;stroke-width:0;stroke-linecap:butt;stroke-linejoin:miter;stroke-miterlimit:4;stroke-dasharray:none;stroke-opacity:1" id="path4799" d="m -51.870731,154.89543 -11.098778,-11.10409 4.063831,-4.06383 4.063832,-4.06384 11.108365,11.10837 11.108366,11.10837 -4.073419,4.05955 -4.073419,4.05956 -11.098778,-11.10409 z" transform="scale(0.28222224,0.28222224)"/></g></g></svg>