<svg xmlns="http://www.w3.org/2000/svg" xmlns:svg="http://www.w3.org/2000/svg" id="svg2" width="256" height="256" version="1.1" viewBox="0 0 256 256"><defs id="defs4"><marker style="overflow:visible" id="Arrow2Lend" orient="auto" refX="0" refY="0"><path id="path4196" d="M 8.7185878,4.0337352 L -2.2072895,0.016013256 L 8.7185884,-4.0017078 C 6.9730900,-1.6296469 6.9831476,1.6157441 8.7185878,4.0337352 z" transform="scale(1.1) rotate(180) translate(1,0)" style="fill-rule:evenodd;stroke-width:.625;stroke-linejoin:round;stroke:#000;stroke-opacity:1;fill:#000;fill-opacity:1"/></marker><marker style="overflow:visible" id="Arrow2Lstart" orient="auto" refX="0" refY="0"><path id="path4193" d="M 8.7185878,4.0337352 L -2.2072895,0.016013256 L 8.7185884,-4.0017078 C 6.9730900,-1.6296469 6.9831476,1.6157441 8.7185878,4.0337352 z" transform="scale(1.1) translate(1,0)" style="fill-rule:evenodd;stroke-width:.625;stroke-linejoin:round;stroke:#000;stroke-opacity:1;fill:#000;fill-opacity:1"/></marker><marker style="overflow:visible" id="Arrow1Mstart" orient="auto" refX="0" refY="0"><path transform="scale(0.4) translate(10,0)" style="fill-rule:evenodd;stroke:#000;stroke-width:1pt;stroke-opacity:1;fill:#000;fill-opacity:1" id="path4181" d="M 0.0,0.0 L 5.0,-5.0 L -12.5,0.0 L 5.0,5.0 L 0.0,0.0 z"/></marker></defs><metadata id="metadata7"/><g id="g4261"><g id="g4258"><path style="fill:none;fill-rule:evenodd;stroke:#000;stroke-width:16;stroke-linecap:butt;stroke-linejoin:miter;stroke-miterlimit:4;stroke-dasharray:none;stroke-opacity:1" id="path5147" d="M 32,184 92.209863,156.12172 164,188 220.23924,163.76076"/></g><circle id="path4146" cx="92" cy="156" r="16" style="opacity:.98000004;fill:#00ff7f;fill-opacity:1;stroke:#000;stroke-width:8;stroke-linecap:butt;stroke-linejoin:bevel;stroke-miterlimit:4;stroke-dasharray:none;stroke-dashoffset:6;stroke-opacity:1"/><circle id="path4146-5" cx="164" cy="188" r="16" style="opacity:.98000004;fill:#00ff7f;fill-opacity:1;stroke:#000;stroke-width:8;stroke-linecap:butt;stroke-linejoin:bevel;stroke-miterlimit:4;stroke-dasharray:none;stroke-dashoffset:6;stroke-opacity:1"/><text id="text4441" x="100.062" y="139.242" transform="scale(1.0132811,0.98689297)" style="font-style:normal;font-variant:normal;font-weight:400;font-stretch:normal;font-size:121.5109024px;line-height:125%;font-family:'Cordia New';-inkscape-font-specification:'Cordia New';letter-spacing:0;word-spacing:0;fill:#000;fill-opacity:1;stroke:none;stroke-width:1px;stroke-linecap:butt;stroke-linejoin:miter;stroke-opacity:1" xml:space="preserve"><tspan id="tspan4443" x="100.062" y="139.242">?</tspan></text><g id="g4194"><path style="color:#000;display:inline;overflow:visible;visibility:visible;fill:#000;fill-rule:evenodd;stroke:none;stroke-width:1;stroke-linecap:butt;stroke-linejoin:miter;stroke-miterlimit:4;stroke-dasharray:none;stroke-dashoffset:0;stroke-opacity:1;marker:none;enable-background:accumulate" id="path4488" d="m 63.761891,128.50092 -13.523785,-29.00184 -5e-6,0 -22.239946,28.02468 -5e-6,0 c 11.921243,0.32575 23.842498,0.65145 35.763741,0.97716 z"/><path style="fill:none;fill-rule:evenodd;stroke:#000;stroke-width:8;stroke-linecap:butt;stroke-linejoin:miter;stroke-miterlimit:4;stroke-dasharray:none;stroke-opacity:1" id="path4170" d="M 57,114 92.537251,96.37996 114.2381,104.5442"/></g><g id="g4198"><path id="path5169" d="m 193.30746,99.11132 13.52379,29.00185 0,0 22.23995,-28.02469 0,0 c -11.92124,-0.32575 -23.8425,-0.65145 -35.76374,-0.97716 z" style="color:#000;display:inline;overflow:visible;visibility:visible;fill:#000;fill-rule:evenodd;stroke:none;stroke-width:1;stroke-linecap:butt;stroke-linejoin:miter;stroke-miterlimit:4;stroke-dasharray:none;stroke-dashoffset:0;stroke-opacity:1;marker:none;enable-background:accumulate"/><path style="fill:none;fill-rule:evenodd;stroke:#000;stroke-width:8;stroke-linecap:butt;stroke-linejoin:miter;stroke-miterlimit:4;stroke-dasharray:none;stroke-opacity:1" id="path4194" d="M 200.06935,113.61224 168,128 147,118"/></g><circle style="opacity:.98000004;fill:#00ff7f;fill-opacity:1;stroke:#000;stroke-width:8;stroke-linecap:butt;stroke-linejoin:bevel;stroke-miterlimit:4;stroke-dasharray:none;stroke-dashoffset:6;stroke-opacity:1" id="circle4226" cx="36.663" cy="180.445" r="16"/><circle style="opacity:.98000004;fill:#00ff7f;fill-opacity:1;stroke:#000;stroke-width:8;stroke-linecap:butt;stroke-linejoin:bevel;stroke-miterlimit:4;stroke-dasharray:none;stroke-dashoffset:6;stroke-opacity:1" id="circle4228" cx="219.874" cy="164.361" r="16"/></g></svg>