<svg xmlns="http://www.w3.org/2000/svg" xmlns:svg="http://www.w3.org/2000/svg" id="svg4295" width="256" height="256" version="1.1" viewBox="0 0 72.249 72.249"><metadata id="metadata4325"/><g id="g4337" transform="translate(-2.2577778,3.3866677)"><path id="path4219" d="m 18.062224,33.866669 27.093335,0" style="fill:none;fill-rule:evenodd;stroke:#00ff7f;stroke-width:4.51555586;stroke-linecap:butt;stroke-linejoin:miter;stroke-miterlimit:4;stroke-dasharray:none;stroke-opacity:1"/><path id="path4221" d="m 31.608891,20.320001 0,27.093335" style="fill:#00ff7f;fill-rule:evenodd;stroke:#00ff7f;stroke-width:4.51555586;stroke-linecap:butt;stroke-linejoin:miter;stroke-miterlimit:4;stroke-dasharray:none;stroke-opacity:1"/><path id="path4226" d="M 19.75556,27.093329 9.5955526,33.866667 19.75556,40.640006 Z" style="fill:#00ff7f;fill-rule:evenodd;stroke:#000;stroke-width:0;stroke-linecap:butt;stroke-linejoin:miter;stroke-miterlimit:4;stroke-dasharray:none;stroke-opacity:1"/><path style="fill:#00ff7f;fill-rule:evenodd;stroke:#000;stroke-width:0;stroke-linecap:butt;stroke-linejoin:miter;stroke-miterlimit:4;stroke-dasharray:none;stroke-opacity:1" id="path4228" d="m 43.462217,27.093329 10.160007,6.773338 -10.160007,6.773339 z"/><path id="path4230" d="M 38.382227,45.719995 31.608888,55.880003 24.83555,45.719995 Z" style="fill:#00ff7f;fill-rule:evenodd;stroke:#000;stroke-width:0;stroke-linecap:butt;stroke-linejoin:miter;stroke-miterlimit:4;stroke-dasharray:none;stroke-opacity:1"/><path style="fill:#00ff7f;fill-rule:evenodd;stroke:#000;stroke-width:0;stroke-linecap:butt;stroke-linejoin:miter;stroke-miterlimit:4;stroke-dasharray:none;stroke-opacity:1" id="path4232" d="m 24.83555,22.013339 6.773338,-10.160007 6.773339,10.160007 z"/><path id="path4248" d="m 19.755557,27.093335 0,4.515556 9.595556,0 0,-9.595556 -4.515556,0 6.773331,-10.160003 6.773339,10.160007 -4.515558,0 0,9.595552 9.595556,0 0,-4.515556 10.160001,6.773334 -10.16001,6.773336 0,-4.515558 -9.595547,0 0,9.595556 4.515556,0 -6.773334,10.160001 -6.773341,-10.16001 4.515563,9e-6 0,-9.595556 -9.595556,0 0,4.515556 -10.1600045,-6.773337 z" style="fill:none;fill-rule:evenodd;stroke:#000;stroke-width:1.12888896;stroke-linecap:butt;stroke-linejoin:miter;stroke-miterlimit:4;stroke-dasharray:none;stroke-opacity:1"/><g id="g4168" transform="translate(4.5155555,-2.2577779)"><g id="g4210" transform="translate(13.546668,-5.2930604e-7)"><circle id="path4204" cx="28.222" cy="19.191" r="9.031" style="opacity:1;fill:none;fill-opacity:1;fill-rule:evenodd;stroke:#000;stroke-width:2.25777793;stroke-miterlimit:4;stroke-dasharray:none;stroke-opacity:1"/><path id="path4206" d="m 34.995558,25.964446 14.368411,14.36841" style="fill:none;fill-rule:evenodd;stroke:#000;stroke-width:4.51555586;stroke-linecap:butt;stroke-linejoin:miter;stroke-miterlimit:4;stroke-dasharray:none;stroke-opacity:1"/></g></g></g></svg>